<svg width="105" height="18" viewBox="0 0 105 18" fill="none" xmlns="http://www.w3.org/2000/svg">
<path d="M20.4716 5.20435C21.2818 5.1916 22.0848 5.3589 22.8225 5.69418C23.5399 6.03089 24.2007 6.4769 24.7813 7.01628C25.3472 7.57538 25.7966 8.24117 26.1034 8.97511C26.4389 9.73008 26.6061 10.549 26.5932 11.3751C26.606 12.1853 26.4387 12.9883 26.1034 13.726C25.7666 14.4431 25.3206 15.1036 24.7813 15.6839C24.2093 16.234 23.5466 16.6813 22.8225 17.006C22.0676 17.3415 21.2488 17.5086 20.4229 17.4958C19.6025 17.5011 18.7884 17.3515 18.0234 17.0551C17.2982 16.7538 16.6343 16.3222 16.0646 15.7817C15.5037 15.2184 15.055 14.5537 14.7425 13.8228C14.4019 13.0526 14.2344 12.2171 14.2517 11.3751C14.2389 10.5492 14.4061 9.7304 14.7415 8.97558C15.0425 8.2385 15.4926 7.5716 16.0636 7.01675C16.6356 6.46661 17.2983 6.01934 18.0225 5.69464C18.8003 5.37713 19.6315 5.21074 20.4716 5.20435V5.20435ZM15.8681 11.3751C15.8538 11.9807 15.9708 12.5823 16.211 13.1384C16.4623 13.6743 16.7925 14.1695 17.1906 14.6074C17.5984 15.0426 18.1011 15.3779 18.6597 15.587C19.7906 16.0441 21.0548 16.0441 22.1857 15.587C22.7218 15.336 23.2171 15.0059 23.6552 14.6079C24.0748 14.1871 24.4076 13.6879 24.6349 13.1389C24.8751 12.5827 24.992 11.9812 24.9778 11.3756C24.992 10.77 24.8751 10.1684 24.6349 9.61231C24.3836 9.07641 24.0534 8.58123 23.6552 8.1433C23.2257 7.73442 22.7287 7.40298 22.1862 7.16365C21.6287 6.92793 21.0281 6.81114 20.4229 6.82073C19.8173 6.80645 19.2158 6.92344 18.6597 7.16365C18.1238 7.41492 17.6286 7.74514 17.1906 8.1433C16.7554 8.55106 16.4202 9.05377 16.211 9.61231C15.9709 10.1683 15.8539 10.7697 15.8681 11.3751V11.3751Z" fill="black"/>
<path d="M36.9249 8.04461C36.4959 7.65989 35.9973 7.36073 35.4559 7.16321C34.325 6.70613 33.0608 6.70613 31.9299 7.16321C31.394 7.41447 30.8988 7.7447 30.4609 8.14286C30.0361 8.55942 29.7025 9.05965 29.4812 9.61186C29.2455 10.1694 29.1287 10.7699 29.1383 11.3751C29.124 11.9808 29.241 12.5823 29.4812 13.1384C29.7325 13.6743 30.0627 14.1695 30.4609 14.6074C30.8686 15.0427 31.3713 15.3779 31.9299 15.5871C33.0608 16.0441 34.325 16.0441 35.4559 15.5871C36.0019 15.3531 36.4999 15.0204 36.9249 14.6055C37.0659 14.4569 37.2592 14.3691 37.4639 14.3609C37.5661 14.3599 37.6673 14.3813 37.7604 14.4236C37.8535 14.4659 37.9362 14.528 38.0028 14.6055C38.0834 14.6783 38.1437 14.7706 38.1781 14.8736C38.2124 14.9765 38.2196 15.0866 38.1989 15.1931C38.1972 15.3139 38.1702 15.433 38.1196 15.5427C38.069 15.6524 37.9959 15.7502 37.9051 15.8299C37.7123 16.0313 37.4989 16.212 37.2683 16.3688C36.9824 16.5874 36.6697 16.7685 36.3378 16.9078C35.9949 17.0547 35.5542 17.2016 35.1135 17.3485C34.6347 17.4748 34.1388 17.5244 33.6445 17.4954C32.824 17.5006 32.01 17.3511 31.2449 17.0547C30.5197 16.7534 29.8558 16.3218 29.2861 15.7812C28.7252 15.218 28.2765 14.5532 27.964 13.8224C27.624 13.0522 27.457 12.2168 27.4747 11.3751C27.4619 10.5492 27.629 9.73043 27.9645 8.97561C28.2655 8.23852 28.7156 7.57162 29.2866 7.01678C29.8586 6.46663 30.5213 6.01936 31.2454 5.69467C32.0201 5.3608 32.8513 5.17773 33.6945 5.15526C34.1754 5.14475 34.6548 5.21092 35.1149 5.35128C35.5556 5.49818 35.9473 5.64508 36.2901 5.79198C36.633 5.988 36.9268 6.18356 37.2206 6.37958C37.5144 6.57561 37.7104 6.77116 37.9065 6.91853C38.0362 7.05295 38.1216 7.22391 38.1511 7.40835C38.1887 7.5176 38.1949 7.63519 38.1689 7.74776C38.1429 7.86032 38.0859 7.96334 38.0042 8.04508C37.9371 8.12177 37.8544 8.18323 37.7616 8.22534C37.6688 8.26745 37.5681 8.28923 37.4662 8.28923C37.3643 8.28923 37.2636 8.26745 37.1708 8.22534C37.078 8.18323 36.9953 8.12177 36.9282 8.04508L36.9249 8.04461Z" fill="black"/>
<path d="M39.3755 2.36465C39.3857 2.09323 39.4895 1.83371 39.6693 1.63014C39.7583 1.52445 39.8719 1.44228 40.0002 1.39088C40.1284 1.33948 40.2674 1.32043 40.4047 1.33541C40.5408 1.332 40.6762 1.3563 40.8026 1.40682C40.929 1.45734 41.0438 1.53303 41.1401 1.62929C41.2364 1.72555 41.312 1.84037 41.3626 1.96678C41.4131 2.09319 41.4374 2.22856 41.434 2.36465C41.434 2.63762 41.3255 2.89941 41.1325 3.09243C40.9395 3.28545 40.6777 3.39389 40.4047 3.39389C40.1318 3.39389 39.87 3.28545 39.6769 3.09243C39.4839 2.89941 39.3755 2.63762 39.3755 2.36465V2.36465ZM39.6202 5.89073C39.6192 5.78849 39.6406 5.68729 39.6829 5.5942C39.7252 5.5011 39.7873 5.41837 39.8648 5.35178C40.0058 5.20315 40.1991 5.11537 40.4038 5.1071C40.506 5.10616 40.6072 5.12758 40.7003 5.16984C40.7934 5.2121 40.8762 5.2742 40.9427 5.35178C41.0914 5.49271 41.1792 5.68607 41.1874 5.89073V16.7137C41.1884 16.8159 41.1669 16.9171 41.1247 17.0102C41.0824 17.1033 41.0203 17.186 40.9427 17.2526C40.8018 17.4012 40.6085 17.489 40.4038 17.4973C40.3016 17.4982 40.2004 17.4768 40.1073 17.4345C40.0142 17.3923 39.9314 17.3302 39.8648 17.2526C39.7162 17.1117 39.6284 16.9183 39.6202 16.7137V5.89073Z" fill="black"/>
<path d="M48.583 5.15522C49.3932 5.14247 50.1961 5.30977 50.9338 5.64504C51.6509 5.98184 52.3114 6.42784 52.8917 6.96715C53.4576 7.52625 53.907 8.19204 54.2138 8.92598C54.5493 9.6808 54.7164 10.4996 54.7037 11.3255V16.7131C54.7046 16.8153 54.6832 16.9165 54.6409 17.0096C54.5987 17.1027 54.5366 17.1855 54.459 17.2521C54.3495 17.3555 54.2127 17.4252 54.0647 17.4529C53.9167 17.4807 53.7638 17.4652 53.6244 17.4083C53.4849 17.3515 53.3648 17.2557 53.2784 17.1324C53.1919 17.0091 53.1428 16.8636 53.1369 16.7131V15.1459C52.5689 15.7997 51.889 16.347 51.1289 16.7622C50.3526 17.2049 49.4757 17.4411 48.582 17.4481C47.7616 17.4533 46.9475 17.3038 46.1825 17.0074C45.4572 16.7061 44.7933 16.2745 44.2237 15.7339C43.6628 15.1707 43.2141 14.506 42.9016 13.7751C42.5613 13.0043 42.3943 12.1683 42.4122 11.326C42.3994 10.5001 42.5665 9.68127 42.902 8.92645C43.203 8.18937 43.6531 7.52247 44.2241 6.96762C44.7961 6.41747 45.4588 5.9702 46.183 5.64551C46.9421 5.32318 47.7582 5.15646 48.583 5.15522V5.15522ZM43.9794 11.326C43.9652 11.9316 44.0822 12.5331 44.3224 13.0893C44.5736 13.6251 44.9039 14.1203 45.302 14.5583C45.7099 14.9936 46.2128 15.3288 46.7715 15.5379C47.3276 15.7781 47.9291 15.8951 48.5348 15.8808C49.1197 15.885 49.6993 15.7699 50.2382 15.5426C50.7771 15.3153 51.264 14.9805 51.6693 14.5587C52.0774 14.1471 52.4091 13.6661 52.6489 13.1384C52.8985 12.5641 53.0476 11.9512 53.0896 11.3264C53.1039 10.7208 52.9869 10.1193 52.7467 9.56317C52.4954 9.02727 52.1652 8.5321 51.767 8.09417C51.3593 7.65892 50.8566 7.32367 50.298 7.11452C49.1671 6.65744 47.9029 6.65744 46.772 7.11452C46.2361 7.36578 45.7409 7.69601 45.303 8.09417C44.8677 8.50191 44.5324 9.00463 44.3233 9.56317C44.0828 10.1191 43.9655 10.7204 43.9794 11.326V11.326Z" fill="black"/>
<path d="M60.9736 16.7132C60.9745 16.8154 60.9531 16.9166 60.9108 17.0097C60.8686 17.1028 60.8065 17.1855 60.7289 17.2521C60.588 17.4007 60.3946 17.4885 60.1899 17.4968C59.5101 17.519 58.8359 17.3673 58.2311 17.0561C57.7256 16.806 57.2886 16.4367 56.9577 15.9801C56.6287 15.5733 56.3795 15.1081 56.2232 14.6088C56.0935 14.1968 56.0274 13.7674 56.0271 13.3354V1.92299C56.0262 1.82076 56.0476 1.71955 56.0899 1.62646C56.1321 1.53337 56.1942 1.45063 56.2718 1.38405C56.3389 1.30736 56.4216 1.2459 56.5144 1.20379C56.6072 1.16168 56.7079 1.13989 56.8098 1.13989C56.9117 1.13989 57.0124 1.16168 57.1052 1.20379C57.198 1.2459 57.2807 1.30736 57.3478 1.38405C57.4965 1.52498 57.5842 1.71834 57.5925 1.92299V13.334C57.6089 13.5322 57.6416 13.7287 57.6903 13.9216C57.759 14.2243 57.8926 14.5084 58.0819 14.7543C58.2917 15.0623 58.5575 15.3281 58.8655 15.538C59.2747 15.7947 59.7549 15.9148 60.2367 15.8809C60.339 15.8799 60.4402 15.9014 60.5333 15.9436C60.6264 15.9859 60.7091 16.048 60.7757 16.1256C60.892 16.3007 60.9602 16.5033 60.9736 16.7132V16.7132Z" fill="black"/>
<path d="M74.0989 17.4973C73.7495 17.4932 73.4155 17.3527 73.1683 17.1057C73.0421 16.9862 72.9422 16.8418 72.8748 16.6816C72.8074 16.5214 72.774 16.3489 72.7768 16.1751V10.7875C72.7788 10.2513 72.6791 9.71944 72.483 9.22029C72.2827 8.72395 71.9827 8.27398 71.6016 7.89819C71.2345 7.50661 70.7821 7.20499 70.2795 7.01678C69.2714 6.62495 68.153 6.62495 67.1449 7.01678C66.6486 7.21709 66.1986 7.51708 65.8228 7.89819C65.4313 8.26523 65.1296 8.71767 64.9414 9.22029C64.7453 9.71944 64.6456 10.2513 64.6476 10.7875V16.2238C64.6436 16.5732 64.5031 16.9072 64.2561 17.1543C64.0711 17.3373 63.8363 17.4616 63.5811 17.5118C63.3258 17.562 63.0614 17.5358 62.821 17.4364C62.5806 17.3371 62.3748 17.1691 62.2294 16.9534C62.0839 16.7377 62.0053 16.4839 62.0034 16.2238V10.7875C62.0072 9.89497 62.1905 9.01227 62.5424 8.19199C63.2162 6.604 64.4805 5.33976 66.0685 4.66591C66.8868 4.30935 67.77 4.12586 68.6626 4.12696C69.5552 4.13072 70.4379 4.314 71.2582 4.66591C72.8462 5.33976 74.1104 6.604 74.7843 8.19199C75.141 9.01074 75.3245 9.89445 75.3232 10.7875V16.2238C75.3192 16.5732 75.1786 16.9072 74.9316 17.1543C74.8282 17.2713 74.6994 17.363 74.555 17.4224C74.4107 17.4819 74.2546 17.5075 74.0989 17.4973Z" fill="black"/>
<path d="M83.2079 17.4972C82.3339 17.5148 81.4661 17.3479 80.661 17.0074C79.8802 16.685 79.1663 16.22 78.5557 15.6362C77.9462 15.0365 77.4632 14.3206 77.1354 13.5309C76.7786 12.6949 76.5952 11.7952 76.5964 10.8862C76.6077 9.99914 76.7734 9.12081 77.0863 8.29065C77.7601 6.70266 79.0244 5.43843 80.6123 4.76457C81.4524 4.41426 82.3477 4.21503 83.257 4.17603V4.17603C84.1186 4.17459 84.9705 4.35839 85.7548 4.71498C86.5117 5.05575 87.2072 5.51905 87.8133 6.08621C88.4114 6.67739 88.8932 7.37565 89.2336 8.14469C89.5836 8.9506 89.7827 9.81384 89.8212 10.6916C89.8425 10.8889 89.8183 11.0885 89.7504 11.2751C89.6825 11.4616 89.5728 11.6301 89.4297 11.7676C89.1917 11.9923 88.8755 12.1153 88.5483 12.1105H79.2902C79.3746 12.3839 79.4897 12.6467 79.6332 12.8942C79.8593 13.3033 80.1579 13.6679 80.5146 13.9702C80.8861 14.2714 81.2983 14.5187 81.7389 14.7047C82.1901 14.8846 82.6739 14.9679 83.1592 14.9494C83.6955 14.9514 84.2274 14.8517 84.7265 14.6556C85.2228 14.4553 85.6728 14.1553 86.0486 13.7742C86.1639 13.6593 86.3018 13.5696 86.4535 13.5106C86.6051 13.4515 86.7674 13.4245 86.93 13.4312C87.2794 13.4353 87.6134 13.5758 87.8605 13.8228C87.9845 13.944 88.0831 14.0887 88.1503 14.2485C88.2176 14.4083 88.2523 14.58 88.2523 14.7533C88.2523 14.9267 88.2176 15.0984 88.1503 15.2582C88.0831 15.418 87.9845 15.5627 87.8605 15.6839C87.3115 16.3418 86.6027 16.8476 85.8021 17.1529C84.9559 17.3796 84.0839 17.4954 83.2079 17.4972V17.4972ZM87.0769 9.56317C86.9829 9.30936 86.8682 9.0637 86.734 8.82867C86.495 8.42836 86.198 8.06574 85.8526 7.75264C85.4811 7.4514 85.0689 7.20412 84.6283 7.01814C84.1771 6.83823 83.6932 6.75488 83.2079 6.77346C82.7245 6.77904 82.245 6.86164 81.7876 7.01814C81.3376 7.18525 80.9225 7.43429 80.5632 7.75264C80.2197 8.04823 79.9232 8.39451 79.6842 8.77954C79.5499 9.01457 79.4352 9.26023 79.3412 9.51405H87.076L87.0769 9.56317Z" fill="black"/>
<path d="M97.6066 14.9503C97.0703 14.9523 96.5385 14.8526 96.0393 14.6565C95.543 14.4562 95.093 14.1562 94.7172 13.7751C94.3257 13.4081 94.024 12.9556 93.8358 12.453C93.6397 11.9538 93.54 11.422 93.542 10.8857V6.67522H98.6845C98.8624 6.68643 99.0408 6.66186 99.209 6.60296C99.3773 6.54406 99.5321 6.45202 99.6641 6.33229C99.7903 6.2128 99.8903 6.06837 99.9577 5.90819C100.025 5.748 100.059 5.57554 100.056 5.40177C100.058 5.22553 100.023 5.0508 99.9535 4.88882C99.884 4.72684 99.7814 4.5812 99.6522 4.46126C99.5231 4.34132 99.3703 4.24973 99.2036 4.19239C99.0369 4.13505 98.8601 4.11323 98.6845 4.12832H93.5416V1.43311C93.5376 1.08371 93.397 0.749732 93.15 0.502587C93.0304 0.376331 92.8859 0.27632 92.7257 0.208908C92.5654 0.141496 92.3928 0.108157 92.219 0.111009C91.8696 0.115021 91.5356 0.255562 91.2885 0.502587C91.1623 0.622082 91.0623 0.766507 90.9949 0.926697C90.9275 1.08689 90.8941 1.25934 90.8969 1.43311V10.8366C90.9006 11.7292 91.0839 12.6119 91.4358 13.4322C92.1097 15.0202 93.3739 16.2844 94.9619 16.9583C95.7807 17.315 96.6644 17.4985 97.5575 17.4972C97.9179 17.4889 98.2774 17.4562 98.6335 17.3994C99.0137 17.3719 99.3685 17.1986 99.624 16.9157C99.8795 16.6329 100.016 16.2623 100.005 15.8813C100.005 14.8053 98.7804 14.9017 98.7804 14.9017C98.3906 14.9433 97.9985 14.9595 97.6066 14.9503V14.9503Z" fill="black"/>
<path d="M103.19 17.8893C104.163 17.8893 104.953 17.0998 104.953 16.126C104.953 15.1522 104.163 14.3627 103.19 14.3627C102.216 14.3627 101.426 15.1522 101.426 16.126C101.426 17.0998 102.216 17.8893 103.19 17.8893Z" fill="#EF4648"/>
<path d="M6.61146 17.3007C8.66994 17.3007 10.2844 16.9091 11.411 16.1255C11.9483 15.7689 12.3841 15.2792 12.6759 14.7042C12.9677 14.1291 13.1055 13.4883 13.076 12.8441C13.0745 12.3444 12.9919 11.8483 12.8313 11.3751C12.6781 10.9846 12.4631 10.6213 12.1946 10.299C11.9004 9.99925 11.5716 9.73556 11.215 9.51355C10.8234 9.31753 10.4313 9.12197 9.99065 8.92595C9.54994 8.77905 9.06012 8.63215 8.61942 8.48525C8.12959 8.38747 7.63977 8.24057 7.15041 8.14232C6.13109 7.95861 5.13118 7.67997 4.16374 7.31004C3.69535 7.11061 3.27716 6.80955 2.93942 6.42864C2.77167 6.25349 2.64165 6.04579 2.5574 5.81838C2.47315 5.59097 2.43646 5.34869 2.44959 5.10653C2.43551 4.68752 2.53226 4.27222 2.73006 3.90257C2.92786 3.53292 3.21972 3.22202 3.57614 3.00127C4.52337 2.4948 5.59129 2.25759 6.66386 2.31542C7.64557 2.26338 8.62407 2.46578 9.50456 2.90303C9.8576 3.10954 10.1654 3.38515 10.4094 3.71336C10.6535 4.04158 10.8288 4.41565 10.9249 4.8132C11.1214 4.9661 11.3618 5.05187 11.6108 5.05788C11.711 5.06631 11.8119 5.05025 11.9046 5.0111C12.0517 4.99573 12.1938 4.94831 12.3207 4.87217C12.4476 4.79603 12.5562 4.69303 12.6391 4.57039C12.3627 3.46303 11.6796 2.50031 10.7256 1.87379C9.84374 1.38396 8.47252 1.13928 6.66059 1.13928C4.75041 1.13928 3.2814 1.48221 2.2531 2.21531C1.76115 2.54896 1.36317 3.00341 1.09733 3.53508C0.831497 4.06675 0.706721 4.65781 0.734971 5.25156C0.723212 5.77345 0.82356 6.29178 1.02924 6.77156C1.2208 7.20363 1.50511 7.58825 1.86199 7.89811C2.30423 8.29016 2.82039 8.58983 3.38012 8.77952C4.30155 9.13757 5.25191 9.41616 6.22082 9.61227C6.95532 9.75917 7.64117 9.95519 8.22877 10.1021C8.78357 10.2296 9.32485 10.4101 9.84515 10.641C10.263 10.8541 10.63 11.1547 10.9212 11.5224C11.1948 11.9443 11.3316 12.4403 11.3128 12.9428C11.3322 13.4007 11.2289 13.8555 11.0137 14.2602C10.7984 14.6649 10.479 15.0047 10.0884 15.2445C9.05608 15.813 7.88641 16.0842 6.70924 16.0282C5.55982 16.0755 4.41634 15.84 3.37918 15.3423C2.55634 14.8548 1.95828 14.0631 1.71415 13.1383C1.62061 13.0387 1.50637 12.9608 1.37948 12.91C1.25258 12.8592 1.11611 12.8369 0.979649 12.8445C0.863327 12.836 0.746499 12.8519 0.636725 12.8913C0.0467836 12.991 0 13.3339 0 13.383C0.587602 16.0277 2.79158 17.3007 6.61146 17.3007Z" fill="black"/>
</svg>
